<svg height="511pt" viewBox="-61 0 511 511.99962" width="511pt" xmlns="http://www.w3.org/2000/svg"><path d="m390.023438 194.761719c0 68.554687-35.421876 128.828125-88.953126 163.53125-8.0625 5.238281-14.796874 12.265625-19.535156 20.625l-69.945312 123.5625c-.160156.273437-.316406.535156-.496094.800781-7.472656 11.882812-25.128906 11.621094-32.160156-.800781l-69.945313-123.5625c-4.726562-8.347657-11.449219-15.378907-19.503906-20.59375-54.300781-35.1875-89.976563-96.675781-88.964844-166.433594 1.597657-111.050781 97.503907-200.394531 210.59375-191.246094 100.152344 8.054688 178.910157 91.886719 178.910157 194.117188zm0 0" fill="#44bfd7"/><path d="m390.023438 194.761719c0 68.554687-35.421876 128.828125-88.953126 163.53125-8.0625 5.238281-14.796874 12.265625-19.535156 20.625l-69.945312 123.5625c-.160156.273437-.316406.535156-.496094.800781-.179688-.265625-.339844-.527344-.496094-.800781l-69.945312-123.5625c-4.726563-8.347657-11.453125-15.378907-19.503906-20.59375-54.304688-35.1875-89.976563-96.675781-88.964844-166.433594 1.445312-100.476563 80.097656-183.222656 178.929687-191.246094 100.152344 8.054688 178.910157 91.886719 178.910157 194.117188zm0 0" fill="#7cd2e3"/><path d="m339.066406 194.53125c0 79.4375-64.410156 143.804688-143.804687 143.804688-79.421875 0-143.804688-64.382813-143.804688-143.804688 0-85.367188 74.101563-152.316406 159.636719-142.929688 71.96875 7.886719 127.972656 68.867188 127.972656 142.929688zm0 0" fill="#c2eaf2"/><path d="m339.066406 194.53125c0 74.070312-56.003906 135.054688-127.972656 142.9375-71.972656-7.882812-127.972656-68.867188-127.972656-142.9375 0-74.0625 56-135.042969 127.972656-142.929688 71.96875 7.886719 127.972656 68.867188 127.972656 142.929688zm0 0" fill="#def4f8"/><path d="m192.761719 297.203125c-58.925781-1.707031-92.871094-68-61.058594-117.648437l54.207031-84.617188c4.371094-6.816406 14.332032-6.816406 18.703125 0l8.9375 13.964844 45.269531 70.652344c32.304688 50.421874-3.078124 119.246093-66.058593 117.648437zm0 0" fill="#f29500"/><path d="m213.550781 295.113281c-48.886719-11.839843-74.101562-70.542969-45.265625-115.558593l45.265625-70.652344 45.269531 70.652344c28.847657 45.023437 3.621094 103.730468-45.269531 115.558593zm0 0" fill="#ffa90b"/></svg>