<?xml version="1.0"?>
<svg xmlns="http://www.w3.org/2000/svg" viewBox="0 0 64 64" width="512" height="512"><g id="flat"><path d="M61,43l-8-6V31l8-6a29.557,29.557,0,0,0-2,9A29.557,29.557,0,0,0,61,43Z" style="fill:#69b1d5"/><path d="M19,47h2a8,8,0,0,1,8,8v0a0,0,0,0,1,0,0H27a8,8,0,0,1-8-8v0A0,0,0,0,1,19,47Z" style="fill:#69b1d5"/><path d="M33,48h8a8,8,0,0,1,8,8v0a0,0,0,0,1,0,0H41a8,8,0,0,1-8-8v0A0,0,0,0,1,33,48Z" style="fill:#69b1d5"/><path d="M31,12H43a0,0,0,0,1,0,0v0a8,8,0,0,1-8,8H23a0,0,0,0,1,0,0v0A8,8,0,0,1,31,12Z" transform="translate(66 32) rotate(-180)" style="fill:#69b1d5"/><path d="M41,53a4.821,4.821,0,0,1-5-5h1l1-.006A2.854,2.854,0,0,0,41,51Z" style="fill:#38495c"/><path d="M29,20H27c0-1.729,1.254-5,6-5v2C29.045,17,29,19.878,29,20Z" style="fill:#38495c"/><rect x="35" y="15" width="2" height="2" style="fill:#38495c"/><path d="M54,34c0,8.284-10.745,15-24,15C12,49,3,34,3,34A31.216,31.216,0,0,1,30,19C43.255,19,54,25.716,54,34Z" style="fill:#92cdde"/><path d="M25,24s6,10,0,20c0,0,7-3,7-10A10.23,10.23,0,0,0,25,24Z" style="fill:#69b1d5"/><path d="M33,24a18.441,18.441,0,0,1,0,19s7-2,7-9A10.23,10.23,0,0,0,33,24Z" style="fill:#69b1d5"/><path d="M42,26s4.8,8,0,16c0,0,6-2.4,6-8C48,27.6,42,26,42,26Z" style="fill:#69b1d5"/><circle cx="15.5" cy="33.5" r="4.5" style="fill:#69b1d5"/><circle cx="7" cy="18" r="3" style="fill:#e8e8e8"/><circle cx="15" cy="10" r="2" style="fill:#e8e8e8"/><circle cx="13.5" cy="33.5" r="1.5" style="fill:#2e3131"/></g></svg>
