<?xml version="1.0" encoding="iso-8859-1"?>
<!-- Generator: Adobe Illustrator 19.0.0, SVG Export Plug-In . SVG Version: 6.00 Build 0)  -->
<svg version="1.1" id="Layer_1" xmlns="http://www.w3.org/2000/svg" xmlns:xlink="http://www.w3.org/1999/xlink" x="0px" y="0px"
	 viewBox="0 0 512 512" style="enable-background:new 0 0 512 512;" xml:space="preserve">
<g>
	<path style="fill:#A9CF54;" d="M236.124,317.947c-0.345,0.83-0.949,1.552-1.768,2.038
		c-87.472,52.299-118.644-40.259-124.938-63.542c-0.712-2.652,1.218-5.292,3.966-5.432c5.627-0.27,11.005-0.334,16.136-0.205
		c80.691,1.983,102.325,50.78,106.733,64.092C236.598,315.92,236.534,317.008,236.124,317.947z"/>
	<path style="fill:#A9CF54;" d="M402.582,311.479c-3.384,12.525-13.981,45.099-36.659,64.382
		c-19.478,16.556-47.869,23.304-88.279-0.852c-1.746-1.046-2.544-3.147-1.898-5.088c2.824-8.547,12.74-31.69,40.798-47.708
		c18.454-10.532,44.764-17.99,82.07-16.169C401.365,306.176,403.294,308.816,402.582,311.479z"/>
</g>
<g>
	<path style="fill:#92B83D;" d="M236.124,317.947c-0.345,0.83-0.949,1.552-1.768,2.038
		c-87.472,52.299-118.644-40.259-124.938-63.542c-0.712-2.652,1.218-5.292,3.966-5.432c5.627-0.27,11.005-0.334,16.136-0.205
		C140.773,283.141,170.986,342.598,236.124,317.947z"/>
	<path style="fill:#92B83D;" d="M365.923,375.862c-19.478,16.556-47.869,23.304-88.279-0.852c-1.746-1.046-2.544-3.147-1.898-5.088
		c2.824-8.547,12.74-31.69,40.798-47.708c-19.65,18.647-24.026,38.685-24.026,38.685
		C323.067,380.001,347.136,382.275,365.923,375.862z"/>
</g>
<path style="fill:#7C9E2F;" d="M251.142,442.477c-1.569,0-3.156-0.456-4.549-1.407c-3.687-2.517-4.637-7.547-2.12-11.235
	l6.631-9.715c0.038-0.055,0.077-0.111,0.116-0.166c0.2-0.279,20.547-29.082,14.374-52.485c-1.891-7.173-8.596-12.587-15.694-18.317
	c-14.318-11.561-33.927-27.393-8.389-63.009c10.998-15.339,8.595-30.396,8.357-31.717l-1.751-7.675
	c-0.994-4.353,1.73-8.687,6.082-9.681c4.353-0.988,8.687,1.73,9.681,6.082l1.784,7.815c0.013,0.052,0.023,0.103,0.034,0.156
	c0.19,0.92,4.495,22.764-11.047,44.439c-16.64,23.208-8.809,29.531,5.407,41.008c8.402,6.785,17.926,14.475,21.171,26.773
	c8.002,30.333-15.109,63.562-16.82,65.963l-6.58,9.641C256.261,441.242,253.724,442.477,251.142,442.477z"/>
<path style="fill:#EBE5DD;" d="M296.315,43.924c0,24.258-22.007,43.924-38.535,43.924s-38.535-19.666-38.535-43.924
	S226.791,0,257.78,0S296.315,19.666,296.315,43.924z"/>
<path style="fill:#FFF3DC;" d="M296.315,43.924c0,24.258-22.007,43.924-38.535,43.924s-38.535-19.666-38.535-43.924
	S226.791,0,257.78,0S296.315,19.666,296.315,43.924z"/>
<path style="fill:#F0DFC0;" d="M273.011,83.171c-5.088,2.997-10.39,4.678-15.23,4.678c-16.524,0-38.535-19.661-38.535-43.924
	S226.791,0,257.78,0c5.885,0,10.93,0.712,15.23,2.026c-18.367,5.605-23.315,22.238-23.315,41.898
	C249.696,61.084,260.712,75.948,273.011,83.171z"/>
<path style="fill:#FFF3DC;" d="M172.225,95.324c17.153,17.153,46.62,15.498,58.307,3.811s13.342-41.153-3.811-58.307
	s-36.395-25.723-58.307-3.811S155.071,78.171,172.225,95.324z"/>
<path style="fill:#F0DFC0;" d="M216.939,106.474c-13.851,3.773-32.434,1.132-44.711-11.146c-17.16-17.16-25.73-36.4-3.816-58.314
	c14.044-14.046,26.991-15.565,38.999-10.337c-4.603,2.102-9.335,5.465-14.206,10.337c-21.914,21.914-13.344,41.154,3.816,58.314
	C202.678,100.988,209.673,104.598,216.939,106.474z"/>
<path style="fill:#FFF3DC;" d="M343.336,95.324c-17.153,17.153-46.62,15.498-58.307,3.811
	c-11.687-11.687-13.342-41.153,3.811-58.307c17.153-17.154,36.395-25.723,58.307-3.811C369.059,58.93,360.489,78.171,343.336,95.324
	z"/>
<path style="fill:#F0DFC0;" d="M328.22,104.955c-15.974,6.014-34.504,2.867-43.191-5.821c-11.684-11.684-13.344-41.154,3.804-58.303
	c11.965-11.964,24.943-19.746,39.127-15.952c-5.907,3.018-11.598,7.61-17.063,13.075c-17.149,17.15-15.49,46.619-3.806,58.303
	C311.858,101.021,319.587,104.125,328.22,104.955z"/>
<path style="fill:#FFF3DC;" d="M340.24,164.918c-24.258,0-43.924-22.007-43.924-38.535s19.666-38.535,43.924-38.535
	c24.258,0,43.924,7.545,43.924,38.535S364.498,164.918,340.24,164.918z"/>
<path style="fill:#F0DFC0;" d="M368.502,159.076c-7.642,4.355-17.495,5.842-28.262,5.842c-24.264,0-43.924-22.011-43.924-38.535
	s19.661-38.535,43.924-38.535c0.83,0,1.66,0.01,2.48,0.032c-13.527,7.642-22.69,21.472-22.69,32.758
	c0,16.524,19.661,38.535,43.924,38.535C365.483,159.172,367.004,159.14,368.502,159.076z"/>
<path style="fill:#FFF3DC;" d="M288.839,211.939c-17.153-17.153-15.498-46.62-3.811-58.307
	c11.687-11.687,41.153-13.342,58.307,3.811c17.154,17.153,25.723,36.395,3.811,58.307S305.993,229.092,288.839,211.939z"/>
<path style="fill:#F0DFC0;" d="M336.779,224.051c-17.678,10.639-33.544,2.285-47.945-12.116
	c-17.149-17.15-15.49-46.619-3.804-58.303c7.556-7.556,22.538-10.919,36.821-7.718c-3.342,1.444-6.252,3.32-8.494,5.562
	c-11.684,11.684-13.344,41.154,3.806,58.303C323.414,216.032,329.945,221.152,336.779,224.051z"/>
<path style="fill:#FFF3DC;" d="M296.315,208.842c0-24.258-22.007-43.924-38.535-43.924s-38.535,19.666-38.535,43.924
	s7.545,43.924,38.535,43.924S296.315,233.101,296.315,208.842z"/>
<path style="fill:#F0DFC0;" d="M271.222,251.236c-3.891,1.002-8.354,1.531-13.442,1.531c-30.99,0-38.535-19.661-38.535-43.924
	s22.011-43.924,38.535-43.924c4.268,0,8.914,1.314,13.442,3.686c-13,6.791-25.093,22.248-25.093,40.238
	C246.128,229.117,251.399,246.18,271.222,251.236z"/>
<path style="fill:#FFF3DC;" d="M226.721,211.939c17.153-17.153,15.498-46.62,3.811-58.307
	c-11.687-11.687-41.153-13.342-58.307,3.811s-25.723,36.395-3.811,58.307S209.568,229.092,226.721,211.939z"/>
<path style="fill:#F0DFC0;" d="M192.125,215.752c5.055,5.055,9.96,8.484,14.735,10.564c-11.846,4.958-24.619,3.266-38.448-10.564
	c-21.914-21.914-13.344-41.154,3.816-58.314c12.116-12.116,30.386-14.843,44.182-11.286c-7.46,1.833-14.67,5.487-20.47,11.286
	C178.781,174.597,170.212,193.838,192.125,215.752z"/>
<path style="fill:#FFF3DC;" d="M175.321,164.918c24.258,0,43.924-22.007,43.924-38.535s-19.666-38.535-43.924-38.535
	s-43.924,7.545-43.924,38.535S151.063,164.918,175.321,164.918z"/>
<path style="fill:#F0DFC0;" d="M183.793,164.023c-2.738,0.582-5.572,0.894-8.472,0.894c-24.264,0-43.924-7.545-43.924-38.535
	s19.661-38.535,43.924-38.535c2.9,0,5.734,0.312,8.472,0.894c-17.904,2.738-30.914,12.438-30.914,37.64
	S165.89,161.285,183.793,164.023z"/>
<circle style="fill:#E86F22;" cx="257.776" cy="126.38" r="50.751"/>
<path style="fill:#C9571E;" d="M298.894,156.134c-9.217,12.723-24.204,21.002-41.114,21.002c-28.026,0-50.753-22.727-50.753-50.753
	c0-20.463,12.114-38.1,29.563-46.121c-6.063,8.35-9.628,18.634-9.628,29.739c0,28.038,22.727,50.753,50.753,50.753
	C285.279,160.753,292.444,159.1,298.894,156.134z"/>
<circle style="fill:#FFF3DC;" cx="257.776" cy="126.38" r="8.084"/>
<path style="fill:#E86F22;" d="M314.661,512h-110.52c-11.452,0-20.735-9.283-20.735-20.735v-62.277c0-2.381,1.93-4.311,4.311-4.311
	h143.366c2.381,0,4.311,1.93,4.311,4.311v62.277C335.396,502.717,326.112,512,314.661,512z"/>
<g>
	<path style="fill:#C9571E;" d="M242.388,512h-38.243c-11.454,0-20.739-9.285-20.739-20.739v-62.27c0-2.381,1.93-4.311,4.311-4.311
		h33.932v66.582C221.649,502.719,230.94,512,242.388,512z"/>
	<path style="fill:#C9571E;" d="M335.396,457.566h-151.99v-28.578c0-2.381,1.93-4.311,4.311-4.311h143.366
		c2.381,0,4.311,1.93,4.311,4.311v28.578H335.396z"/>
</g>
<path style="fill:#A14718;" d="M221.649,424.68v32.886h-38.243v-28.575c0-2.381,1.93-4.311,4.311-4.311L221.649,424.68
	L221.649,424.68z"/>
<g>
</g>
<g>
</g>
<g>
</g>
<g>
</g>
<g>
</g>
<g>
</g>
<g>
</g>
<g>
</g>
<g>
</g>
<g>
</g>
<g>
</g>
<g>
</g>
<g>
</g>
<g>
</g>
<g>
</g>
</svg>
