<svg height="512pt" viewBox="0 0 512 512" width="512pt" xmlns="http://www.w3.org/2000/svg"><path d="m369 246.101562h30v90h-30zm0 0" fill="#bf4635"/><path d="m113 246.101562h30v90h-30zm0 0" fill="#df523e"/><path d="m256 246.101562h15v90h-15zm0 0" fill="#bf4635"/><path d="m241 246.101562h15v90h-15zm0 0" fill="#df523e"/><path d="m512 219.199219-128-219.199219-128 219.199219 128 56.902343h128l-33.308594-56.902343zm0 0" fill="#4d9668"/><path d="m256 219.199219-128-219.199219-128 219.199219h33.308594l-33.308594 56.902343h128zm0 0" fill="#73b06a"/><path d="m350.691406 219.199219h33.308594l-128-219.199219-89.871094 236.101562 89.871094 40h128zm0 0" fill="#016362"/><path d="m128 219.199219h33.308594l-33.308594 56.902343h128v-276.101562zm0 0" fill="#277d65"/><path d="m512 306.101562h-256l-180 186.398438 436-70zm0 0" fill="#4d9668"/><path d="m0 306.101562v116.398438l256 70v-186.398438zm0 0" fill="#73b06a"/><path d="m512 392.5h-15c-14.261719 0-27.800781-4.535156-39.152344-13.121094l-9.046875-6.839844-9.046875 6.839844c-11.351562 8.582032-24.890625 13.121094-39.152344 13.121094-14.261718 0-27.800781-4.535156-39.152343-13.121094l-9.046875-6.839844-9.046875 6.839844c-11.355469 8.582032-24.894531 13.121094-39.15625 13.121094-14.257813 0-27.800781-4.539062-39.152344-13.121094l-9.046875-6.839844-130 69.730469 130 69.730469h256zm0 0" fill="#6bdedd"/><path d="m246.953125 379.378906c-11.351563 8.585938-24.890625 13.121094-39.152344 13.121094s-27.800781-4.535156-39.152343-13.121094l-9.046876-6.839844-9.046874 6.839844c-11.355469 8.585938-24.894532 13.121094-39.152344 13.121094-14.265625 0-27.804688-4.535156-39.15625-13.121094l-9.046875-6.839844-9.046875 6.839844c-11.351563 8.585938-24.890625 13.121094-39.152344 13.121094h-15v119.5h256v-139.460938zm0 0" fill="#b5efee"/></svg>